Normalized EMG Linear Envelopes
nRows=217
nColumns=4

endheader
time	 med_gas_r	  soleus_r	 tib_ant_r	
2.86089	  0.010819	  0.020784	  0.045371	
2.89415	  0.011114	  0.021074	  0.045086	
2.92742	  0.011352	  0.021294	  0.044865	
2.96069	  0.011550	  0.021388	  0.044736	
2.99395	  0.011785	  0.021329	  0.044707	
3.02722	  0.012086	  0.021152	  0.044775	
3.06048	  0.012451	  0.020842	  0.044906	
3.09375	  0.012882	  0.020362	  0.045049	
3.12702	  0.013314	  0.019795	  0.045150	
3.16028	  0.013677	  0.019334	  0.045212	
3.19355	  0.013910	  0.019109	  0.045214	
3.22681	  0.013956	  0.019180	  0.045153	
3.26008	  0.013777	  0.019578	  0.045060	
3.29335	  0.013375	  0.020309	  0.044954	
3.32661	  0.012892	  0.021305	  0.044851	
3.35988	  0.012461	  0.022517	  0.044755	
3.39315	  0.012121	  0.023802	  0.044665	
3.42641	  0.011821	  0.024840	  0.044568	
3.45968	  0.011435	  0.025488	  0.044438	
3.49294	  0.010926	  0.025914	  0.044269	
3.52621	  0.010383	  0.026255	  0.044122	
3.55948	  0.009908	  0.026490	  0.044050	
3.59274	  0.009581	  0.026467	  0.044081	
3.62601	  0.009426	  0.026128	  0.044176	
3.65927	  0.009428	  0.025553	  0.044266	
3.69254	  0.009519	  0.024933	  0.044304	
3.72581	  0.009644	  0.024425	  0.044273	
3.75907	  0.009777	  0.024150	  0.044244	
3.79234	  0.009888	  0.024161	  0.044284	
3.8256	  0.009998	  0.024477	  0.044422	
3.85887	  0.010133	  0.025050	  0.044674	
3.89214	  0.010293	  0.025757	  0.045006	
3.9254	  0.010475	  0.026363	  0.045362	
3.95867	  0.010673	  0.026642	  0.045678	
3.99194	  0.010923	  0.026555	  0.045907	
4.0252	  0.011229	  0.026213	  0.046054	
4.05847	  0.011520	  0.025586	  0.046139	
4.09173	  0.011725	  0.024625	  0.046177	
4.125	  0.011869	  0.023583	  0.046177	
4.15827	  0.012008	  0.022786	  0.046137	
4.19153	  0.012167	  0.022388	  0.046050	
4.2248	  0.012314	  0.022325	  0.045923	
4.25806	  0.012354	  0.022394	  0.045736	
4.29133	  0.012224	  0.022309	  0.045475	
4.3246	  0.011978	  0.021965	  0.045161	
4.35786	  0.011689	  0.021432	  0.044802	
4.39113	  0.011394	  0.020858	  0.044369	
4.4244	  0.011074	  0.020382	  0.043747	
4.45766	  0.010730	  0.020047	  0.042860	
4.49093	  0.010353	  0.019786	  0.041714	
4.52419	  0.009979	  0.019449	  0.040382	
4.55746	  0.009660	  0.018994	  0.038941	
4.59073	  0.009434	  0.018547	  0.037485	
4.62399	  0.009323	  0.018160	  0.036243	
4.65726	  0.009334	  0.017883	  0.035581	
4.69052	  0.009512	  0.017743	  0.036129	
4.72379	  0.009906	  0.017772	  0.038783	
4.75706	  0.010516	  0.018208	  0.044644	
4.79032	  0.011363	  0.019403	  0.055048	
4.82359	  0.012431	  0.021751	  0.071365	
4.85685	  0.013648	  0.025659	  0.094598	
4.89012	  0.014958	  0.031490	  0.124985	
4.92339	  0.016389	  0.039458	  0.161510	
4.95665	  0.017957	  0.049609	  0.201556	
4.98992	  0.019775	  0.061876	  0.241963	
5.02319	  0.021965	  0.075986	  0.281488	
5.05645	  0.024569	  0.091357	  0.319854	
5.08972	  0.027602	  0.107501	  0.357846	
5.12298	  0.031017	  0.124648	  0.394216	
5.15625	  0.034543	  0.142710	  0.428783	
5.18952	  0.037938	  0.161134	  0.462972	
5.22278	  0.041099	  0.179489	  0.497357	
5.25605	  0.044075	  0.197033	  0.533748	
5.28931	  0.047128	  0.212848	  0.573923	
5.32258	  0.050336	  0.224601	  0.615271	
5.35585	  0.053750	  0.231408	  0.653734	
5.38911	  0.057559	  0.235402	  0.688781	
5.42238	  0.061451	  0.238299	  0.719372	
5.45565	  0.064866	  0.240851	  0.746400	
5.48891	  0.067521	  0.242771	  0.773532	
5.52218	  0.069463	  0.243590	  0.799398	
5.55544	  0.071039	  0.243855	  0.818832	
5.58871	  0.072480	  0.243885	  0.828475	
5.62198	  0.074018	  0.244017	  0.830207	
5.65524	  0.075706	  0.245317	  0.829803	
5.68851	  0.077528	  0.248794	  0.829730	
5.72177	  0.079312	  0.253469	  0.827645	
5.75504	  0.080771	  0.257354	  0.819680	
5.78831	  0.082097	  0.260849	  0.801713	
5.82157	  0.083387	  0.264793	  0.773220	
5.85484	  0.084495	  0.268814	  0.738739	
5.8881	  0.084990	  0.272032	  0.701751	
5.92137	  0.084651	  0.274145	  0.666497	
5.95464	  0.083524	  0.274687	  0.639428	
5.9879	  0.081944	  0.274357	  0.627069	
6.02117	  0.079925	  0.272692	  0.631473	
6.05444	  0.077558	  0.270208	  0.648960	
6.0877	  0.074548	  0.265507	  0.672960	
6.12097	  0.070897	  0.258138	  0.698268	
6.15423	  0.067245	  0.249333	  0.720689	
6.1875	  0.063996	  0.240471	  0.738162	
6.22077	  0.061308	  0.232468	  0.748238	
6.25403	  0.059462	  0.226784	  0.750684	
6.2873	  0.058906	  0.224216	  0.744832	
6.32056	  0.059899	  0.225664	  0.732779	
6.35383	  0.062303	  0.231210	  0.717411	
6.3871	  0.065773	  0.240405	  0.700185	
6.42036	  0.069584	  0.251295	  0.682004	
6.45363	  0.072828	  0.261511	  0.663128	
6.4869	  0.074973	  0.270386	  0.645649	
6.52016	  0.076092	  0.279049	  0.631042	
6.55343	  0.076400	  0.288425	  0.620306	
6.58669	  0.076312	  0.299228	  0.617870	
6.61996	  0.076302	  0.311218	  0.626891	
6.65323	  0.076388	  0.322952	  0.650249	
6.68649	  0.076742	  0.334273	  0.686256	
6.71976	  0.077209	  0.343566	  0.728546	
6.75302	  0.077787	  0.350681	  0.771218	
6.78629	  0.078764	  0.356931	  0.811443	
6.81956	  0.079875	  0.361345	  0.849288	
6.85282	  0.080581	  0.361221	  0.878596	
6.88609	  0.080257	  0.353994	  0.891489	
6.91935	  0.078453	  0.337879	  0.885860	
6.95262	  0.075370	  0.314093	  0.864200	
6.98589	  0.072034	  0.288083	  0.833564	
7.01915	  0.069259	  0.264798	  0.800425	
7.05242	  0.067439	  0.247413	  0.768219	
7.08569	  0.066560	  0.237019	  0.739527	
7.11895	  0.066291	  0.233262	  0.713758	
7.15222	  0.066609	  0.236694	  0.692059	
7.18548	  0.067655	  0.247891	  0.678458	
7.21875	  0.069430	  0.264695	  0.676465	
7.25202	  0.071750	  0.282709	  0.688307	
7.28528	  0.074318	  0.296791	  0.709707	
7.31855	  0.076972	  0.304347	  0.734379	
7.35181	  0.079880	  0.308188	  0.756329	
7.38508	  0.082873	  0.311036	  0.770734	
7.41835	  0.085535	  0.313702	  0.776081	
7.45161	  0.087506	  0.315001	  0.771378	
7.48488	  0.088456	  0.313687	  0.760807	
7.51815	  0.088200	  0.310325	  0.751852	
7.55141	  0.087055	  0.306740	  0.746570	
7.58468	  0.085540	  0.304152	  0.744285	
7.61794	  0.084238	  0.302639	  0.740752	
7.65121	  0.083152	  0.300613	  0.729707	
7.68448	  0.082215	  0.297671	  0.711085	
7.71774	  0.081207	  0.293803	  0.687697	
7.75101	  0.080015	  0.288816	  0.662665	
7.78427	  0.078693	  0.282699	  0.637329	
7.81754	  0.077736	  0.277132	  0.612028	
7.85081	  0.077523	  0.273779	  0.588082	
7.88407	  0.078150	  0.273453	  0.568621	
7.91734	  0.079476	  0.275958	  0.556039	
7.9506	  0.081643	  0.281963	  0.554516	
7.98387	  0.084415	  0.291072	  0.567045	
8.01714	  0.087271	  0.301869	  0.591824	
8.0504	  0.089670	  0.311902	  0.622915	
8.08367	  0.091165	  0.319277	  0.654794	
8.11694	  0.091299	  0.321251	  0.684215	
8.1502	  0.089844	  0.315271	  0.709517	
8.18347	  0.086988	  0.301898	  0.727750	
8.21673	  0.083403	  0.285704	  0.737098	
8.25	  0.079591	  0.270556	  0.740873	
8.28327	  0.075875	  0.257880	  0.747072	
8.31653	  0.072619	  0.248276	  0.761285	
8.3498	  0.070306	  0.242087	  0.784944	
8.38306	  0.068897	  0.237905	  0.814694	
8.41633	  0.068262	  0.235081	  0.841674	
8.4496	  0.068298	  0.234379	  0.856933	
8.48286	  0.068785	  0.235580	  0.853753	
8.51613	  0.069320	  0.237677	  0.831973	
8.5494	  0.069799	  0.240636	  0.797883	
8.58266	  0.070584	  0.245186	  0.758541	
8.61593	  0.072163	  0.252704	  0.719177	
8.64919	  0.074980	  0.265205	  0.682439	
8.68246	  0.079289	  0.284298	  0.649201	
8.71573	  0.084894	  0.309260	  0.620157	
8.74899	  0.091180	  0.337591	  0.598477	
8.78226	  0.097497	  0.366741	  0.586763	
8.81552	  0.103228	  0.394310	  0.586586	
8.84879	  0.107629	  0.416707	  0.597168	
8.88206	  0.110181	  0.432196	  0.617585	
8.91532	  0.111193	  0.441638	  0.648836	
8.94859	  0.111294	  0.446141	  0.691662	
8.98185	  0.111078	  0.448451	  0.745864	
9.01512	  0.110692	  0.449615	  0.807429	
9.04839	  0.110299	  0.449202	  0.870629	
9.08165	  0.109226	  0.443612	  0.926262	
9.11492	  0.106198	  0.427650	  0.963996	
9.14819	  0.101081	  0.402006	  0.981560	
9.18145	  0.095034	  0.373582	  0.983445	
9.21472	  0.089074	  0.348307	  0.972507	
9.24798	  0.083858	  0.327884	  0.946898	
9.28125	  0.079514	  0.310996	  0.905988	
9.31452	  0.075935	  0.296789	  0.854990	
9.34778	  0.073003	  0.284896	  0.801063	
9.38105	  0.070295	  0.274654	  0.746907	
9.41431	  0.067399	  0.264992	  0.692677	
9.44758	  0.064084	  0.253399	  0.636994	
9.48085	  0.060486	  0.240002	  0.581993	
9.51411	  0.056706	  0.225947	  0.530931	
9.54738	  0.053022	  0.213098	  0.488100	
9.58065	  0.049552	  0.202025	  0.456586	
9.61391	  0.046235	  0.191506	  0.435800	
9.64718	  0.042767	  0.179612	  0.419987	
9.68044	  0.039100	  0.165503	  0.403575	
9.71371	  0.035322	  0.149263	  0.384039	
9.74698	  0.031795	  0.132338	  0.359193	
9.78024	  0.028768	  0.116429	  0.325385	
9.81351	  0.026244	  0.102151	  0.281549	
9.84677	  0.024236	  0.089939	  0.230273	
9.88004	  0.022726	  0.080320	  0.178705	
9.91331	  0.021625	  0.072849	  0.133158	
9.94657	  0.020791	  0.066486	  0.096702	
9.97984	  0.020081	  0.060909	  0.069870	
10.0131	  0.019192	  0.056003	  0.051736	
10.0464	  0.018012	  0.051552	  0.040678	
